<mxfile host="app.diagrams.net" modified="2023-10-17T15:29:49.380Z" agent="Mozilla/5.0 (Windows NT 10.0; Win64; x64) AppleWebKit/537.36 (KHTML, like Gecko) Chrome/118.0.0.0 Safari/537.36" etag="CfqmyShJSe-9t5Mm__uH" version="22.0.4" type="github">
  <diagram name="Pàgina-1" id="jTT7pIUcJYoTnPth3nRh">
    <mxGraphModel dx="1696" dy="1651" grid="0" gridSize="10" guides="1" tooltips="1" connect="1" arrows="1" fold="1" page="1" pageScale="1" pageWidth="827" pageHeight="1169" math="0" shadow="0">
      <root>
        <mxCell id="0" />
        <mxCell id="1" parent="0" />
        <mxCell id="fy2Gs_JUKnOa4gsoeW3t-79" value="Empleado" style="swimlane;fontStyle=0;childLayout=stackLayout;horizontal=1;startSize=26;horizontalStack=0;resizeParent=1;resizeParentMax=0;resizeLast=0;collapsible=1;marginBottom=0;align=center;fontSize=14;" parent="1" vertex="1">
          <mxGeometry x="-140" y="-50" width="160" height="206" as="geometry" />
        </mxCell>
        <mxCell id="fy2Gs_JUKnOa4gsoeW3t-83" value="" style="shape=table;startSize=0;container=1;collapsible=1;childLayout=tableLayout;fixedRows=1;rowLines=0;fontStyle=0;align=center;resizeLast=1;strokeColor=none;fillColor=none;collapsible=0;" parent="fy2Gs_JUKnOa4gsoeW3t-79" vertex="1">
          <mxGeometry y="26" width="160" height="30" as="geometry" />
        </mxCell>
        <mxCell id="fy2Gs_JUKnOa4gsoeW3t-84" value="" style="shape=tableRow;horizontal=0;startSize=0;swimlaneHead=0;swimlaneBody=0;fillColor=none;collapsible=0;dropTarget=0;points=[[0,0.5],[1,0.5]];portConstraint=eastwest;top=0;left=0;right=0;bottom=1;" parent="fy2Gs_JUKnOa4gsoeW3t-83" vertex="1">
          <mxGeometry width="160" height="30" as="geometry" />
        </mxCell>
        <mxCell id="fy2Gs_JUKnOa4gsoeW3t-85" value="PK" style="shape=partialRectangle;connectable=0;fillColor=none;top=0;left=0;bottom=0;right=0;fontStyle=1;overflow=hidden;whiteSpace=wrap;html=1;" parent="fy2Gs_JUKnOa4gsoeW3t-84" vertex="1">
          <mxGeometry width="30" height="30" as="geometry">
            <mxRectangle width="30" height="30" as="alternateBounds" />
          </mxGeometry>
        </mxCell>
        <mxCell id="fy2Gs_JUKnOa4gsoeW3t-86" value="DNI" style="shape=partialRectangle;connectable=0;fillColor=none;top=0;left=0;bottom=0;right=0;align=left;spacingLeft=6;fontStyle=5;overflow=hidden;whiteSpace=wrap;html=1;" parent="fy2Gs_JUKnOa4gsoeW3t-84" vertex="1">
          <mxGeometry x="30" width="130" height="30" as="geometry">
            <mxRectangle width="130" height="30" as="alternateBounds" />
          </mxGeometry>
        </mxCell>
        <mxCell id="fy2Gs_JUKnOa4gsoeW3t-80" value="nombre" style="text;strokeColor=none;fillColor=none;spacingLeft=4;spacingRight=4;overflow=hidden;rotatable=0;points=[[0,0.5],[1,0.5]];portConstraint=eastwest;fontSize=12;whiteSpace=wrap;html=1;" parent="fy2Gs_JUKnOa4gsoeW3t-79" vertex="1">
          <mxGeometry y="56" width="160" height="30" as="geometry" />
        </mxCell>
        <mxCell id="fy2Gs_JUKnOa4gsoeW3t-81" value="apellido" style="text;strokeColor=none;fillColor=none;spacingLeft=4;spacingRight=4;overflow=hidden;rotatable=0;points=[[0,0.5],[1,0.5]];portConstraint=eastwest;fontSize=12;whiteSpace=wrap;html=1;" parent="fy2Gs_JUKnOa4gsoeW3t-79" vertex="1">
          <mxGeometry y="86" width="160" height="30" as="geometry" />
        </mxCell>
        <mxCell id="fy2Gs_JUKnOa4gsoeW3t-87" value="num_ss" style="text;strokeColor=none;fillColor=none;spacingLeft=4;spacingRight=4;overflow=hidden;rotatable=0;points=[[0,0.5],[1,0.5]];portConstraint=eastwest;fontSize=12;whiteSpace=wrap;html=1;" parent="fy2Gs_JUKnOa4gsoeW3t-79" vertex="1">
          <mxGeometry y="116" width="160" height="30" as="geometry" />
        </mxCell>
        <mxCell id="fy2Gs_JUKnOa4gsoeW3t-88" value="tel_fijo" style="text;strokeColor=none;fillColor=none;spacingLeft=4;spacingRight=4;overflow=hidden;rotatable=0;points=[[0,0.5],[1,0.5]];portConstraint=eastwest;fontSize=12;whiteSpace=wrap;html=1;" parent="fy2Gs_JUKnOa4gsoeW3t-79" vertex="1">
          <mxGeometry y="146" width="160" height="30" as="geometry" />
        </mxCell>
        <mxCell id="fy2Gs_JUKnOa4gsoeW3t-82" value="tel_movil" style="text;strokeColor=none;fillColor=none;spacingLeft=4;spacingRight=4;overflow=hidden;rotatable=0;points=[[0,0.5],[1,0.5]];portConstraint=eastwest;fontSize=12;whiteSpace=wrap;html=1;" parent="fy2Gs_JUKnOa4gsoeW3t-79" vertex="1">
          <mxGeometry y="176" width="160" height="30" as="geometry" />
        </mxCell>
        <mxCell id="fy2Gs_JUKnOa4gsoeW3t-92" value="Cocinero/a" style="swimlane;fontStyle=0;childLayout=stackLayout;horizontal=1;startSize=26;horizontalStack=0;resizeParent=1;resizeParentMax=0;resizeLast=0;collapsible=1;marginBottom=0;align=center;fontSize=14;" parent="1" vertex="1">
          <mxGeometry x="70" y="340" width="160" height="86" as="geometry" />
        </mxCell>
        <mxCell id="fy2Gs_JUKnOa4gsoeW3t-93" value="" style="shape=table;startSize=0;container=1;collapsible=1;childLayout=tableLayout;fixedRows=1;rowLines=0;fontStyle=0;align=center;resizeLast=1;strokeColor=none;fillColor=none;collapsible=0;" parent="fy2Gs_JUKnOa4gsoeW3t-92" vertex="1">
          <mxGeometry y="26" width="160" height="30" as="geometry" />
        </mxCell>
        <mxCell id="fy2Gs_JUKnOa4gsoeW3t-94" value="" style="shape=tableRow;horizontal=0;startSize=0;swimlaneHead=0;swimlaneBody=0;fillColor=none;collapsible=0;dropTarget=0;points=[[0,0.5],[1,0.5]];portConstraint=eastwest;top=0;left=0;right=0;bottom=1;" parent="fy2Gs_JUKnOa4gsoeW3t-93" vertex="1">
          <mxGeometry width="160" height="30" as="geometry" />
        </mxCell>
        <mxCell id="fy2Gs_JUKnOa4gsoeW3t-95" value="PK" style="shape=partialRectangle;connectable=0;fillColor=none;top=0;left=0;bottom=0;right=0;fontStyle=1;overflow=hidden;whiteSpace=wrap;html=1;" parent="fy2Gs_JUKnOa4gsoeW3t-94" vertex="1">
          <mxGeometry width="30" height="30" as="geometry">
            <mxRectangle width="30" height="30" as="alternateBounds" />
          </mxGeometry>
        </mxCell>
        <mxCell id="fy2Gs_JUKnOa4gsoeW3t-96" value="DNI" style="shape=partialRectangle;connectable=0;fillColor=none;top=0;left=0;bottom=0;right=0;align=left;spacingLeft=6;fontStyle=5;overflow=hidden;whiteSpace=wrap;html=1;" parent="fy2Gs_JUKnOa4gsoeW3t-94" vertex="1">
          <mxGeometry x="30" width="130" height="30" as="geometry">
            <mxRectangle width="130" height="30" as="alternateBounds" />
          </mxGeometry>
        </mxCell>
        <mxCell id="fy2Gs_JUKnOa4gsoeW3t-102" value="años_en_empresa" style="text;strokeColor=none;fillColor=none;spacingLeft=4;spacingRight=4;overflow=hidden;rotatable=0;points=[[0,0.5],[1,0.5]];portConstraint=eastwest;fontSize=12;whiteSpace=wrap;html=1;" parent="fy2Gs_JUKnOa4gsoeW3t-92" vertex="1">
          <mxGeometry y="56" width="160" height="30" as="geometry" />
        </mxCell>
        <mxCell id="fy2Gs_JUKnOa4gsoeW3t-103" value="Pinche" style="swimlane;fontStyle=0;childLayout=stackLayout;horizontal=1;startSize=26;horizontalStack=0;resizeParent=1;resizeParentMax=0;resizeLast=0;collapsible=1;marginBottom=0;align=center;fontSize=14;" parent="1" vertex="1">
          <mxGeometry x="-360" y="340" width="160" height="86" as="geometry" />
        </mxCell>
        <mxCell id="fy2Gs_JUKnOa4gsoeW3t-104" value="" style="shape=table;startSize=0;container=1;collapsible=1;childLayout=tableLayout;fixedRows=1;rowLines=0;fontStyle=0;align=center;resizeLast=1;strokeColor=none;fillColor=none;collapsible=0;" parent="fy2Gs_JUKnOa4gsoeW3t-103" vertex="1">
          <mxGeometry y="26" width="160" height="30" as="geometry" />
        </mxCell>
        <mxCell id="fy2Gs_JUKnOa4gsoeW3t-105" value="" style="shape=tableRow;horizontal=0;startSize=0;swimlaneHead=0;swimlaneBody=0;fillColor=none;collapsible=0;dropTarget=0;points=[[0,0.5],[1,0.5]];portConstraint=eastwest;top=0;left=0;right=0;bottom=1;" parent="fy2Gs_JUKnOa4gsoeW3t-104" vertex="1">
          <mxGeometry width="160" height="30" as="geometry" />
        </mxCell>
        <mxCell id="fy2Gs_JUKnOa4gsoeW3t-106" value="PK" style="shape=partialRectangle;connectable=0;fillColor=none;top=0;left=0;bottom=0;right=0;fontStyle=1;overflow=hidden;whiteSpace=wrap;html=1;" parent="fy2Gs_JUKnOa4gsoeW3t-105" vertex="1">
          <mxGeometry width="30" height="30" as="geometry">
            <mxRectangle width="30" height="30" as="alternateBounds" />
          </mxGeometry>
        </mxCell>
        <mxCell id="fy2Gs_JUKnOa4gsoeW3t-107" value="DNI" style="shape=partialRectangle;connectable=0;fillColor=none;top=0;left=0;bottom=0;right=0;align=left;spacingLeft=6;fontStyle=5;overflow=hidden;whiteSpace=wrap;html=1;" parent="fy2Gs_JUKnOa4gsoeW3t-105" vertex="1">
          <mxGeometry x="30" width="130" height="30" as="geometry">
            <mxRectangle width="130" height="30" as="alternateBounds" />
          </mxGeometry>
        </mxCell>
        <mxCell id="fy2Gs_JUKnOa4gsoeW3t-113" value="fecha_nacimiento" style="text;strokeColor=none;fillColor=none;spacingLeft=4;spacingRight=4;overflow=hidden;rotatable=0;points=[[0,0.5],[1,0.5]];portConstraint=eastwest;fontSize=12;whiteSpace=wrap;html=1;" parent="fy2Gs_JUKnOa4gsoeW3t-103" vertex="1">
          <mxGeometry y="56" width="160" height="30" as="geometry" />
        </mxCell>
        <mxCell id="fy2Gs_JUKnOa4gsoeW3t-114" value="Plato" style="swimlane;fontStyle=0;childLayout=stackLayout;horizontal=1;startSize=26;horizontalStack=0;resizeParent=1;resizeParentMax=0;resizeLast=0;collapsible=1;marginBottom=0;align=center;fontSize=14;" parent="1" vertex="1">
          <mxGeometry x="290" y="98" width="160" height="146" as="geometry" />
        </mxCell>
        <mxCell id="fy2Gs_JUKnOa4gsoeW3t-115" value="" style="shape=table;startSize=0;container=1;collapsible=1;childLayout=tableLayout;fixedRows=1;rowLines=0;fontStyle=0;align=center;resizeLast=1;strokeColor=none;fillColor=none;collapsible=0;" parent="fy2Gs_JUKnOa4gsoeW3t-114" vertex="1">
          <mxGeometry y="26" width="160" height="30" as="geometry" />
        </mxCell>
        <mxCell id="fy2Gs_JUKnOa4gsoeW3t-116" value="" style="shape=tableRow;horizontal=0;startSize=0;swimlaneHead=0;swimlaneBody=0;fillColor=none;collapsible=0;dropTarget=0;points=[[0,0.5],[1,0.5]];portConstraint=eastwest;top=0;left=0;right=0;bottom=1;" parent="fy2Gs_JUKnOa4gsoeW3t-115" vertex="1">
          <mxGeometry width="160" height="30" as="geometry" />
        </mxCell>
        <mxCell id="fy2Gs_JUKnOa4gsoeW3t-117" value="PK" style="shape=partialRectangle;connectable=0;fillColor=none;top=0;left=0;bottom=0;right=0;fontStyle=1;overflow=hidden;whiteSpace=wrap;html=1;" parent="fy2Gs_JUKnOa4gsoeW3t-116" vertex="1">
          <mxGeometry width="30" height="30" as="geometry">
            <mxRectangle width="30" height="30" as="alternateBounds" />
          </mxGeometry>
        </mxCell>
        <mxCell id="fy2Gs_JUKnOa4gsoeW3t-118" value="Id_plato" style="shape=partialRectangle;connectable=0;fillColor=none;top=0;left=0;bottom=0;right=0;align=left;spacingLeft=6;fontStyle=5;overflow=hidden;whiteSpace=wrap;html=1;" parent="fy2Gs_JUKnOa4gsoeW3t-116" vertex="1">
          <mxGeometry x="30" width="130" height="30" as="geometry">
            <mxRectangle width="130" height="30" as="alternateBounds" />
          </mxGeometry>
        </mxCell>
        <mxCell id="fy2Gs_JUKnOa4gsoeW3t-119" value="nombre" style="text;strokeColor=none;fillColor=none;spacingLeft=4;spacingRight=4;overflow=hidden;rotatable=0;points=[[0,0.5],[1,0.5]];portConstraint=eastwest;fontSize=12;whiteSpace=wrap;html=1;" parent="fy2Gs_JUKnOa4gsoeW3t-114" vertex="1">
          <mxGeometry y="56" width="160" height="30" as="geometry" />
        </mxCell>
        <mxCell id="fy2Gs_JUKnOa4gsoeW3t-120" value="precio" style="text;strokeColor=none;fillColor=none;spacingLeft=4;spacingRight=4;overflow=hidden;rotatable=0;points=[[0,0.5],[1,0.5]];portConstraint=eastwest;fontSize=12;whiteSpace=wrap;html=1;" parent="fy2Gs_JUKnOa4gsoeW3t-114" vertex="1">
          <mxGeometry y="86" width="160" height="30" as="geometry" />
        </mxCell>
        <mxCell id="fy2Gs_JUKnOa4gsoeW3t-124" value="tipo_plato" style="text;strokeColor=none;fillColor=none;spacingLeft=4;spacingRight=4;overflow=hidden;rotatable=0;points=[[0,0.5],[1,0.5]];portConstraint=eastwest;fontSize=12;whiteSpace=wrap;html=1;" parent="fy2Gs_JUKnOa4gsoeW3t-114" vertex="1">
          <mxGeometry y="116" width="160" height="30" as="geometry" />
        </mxCell>
        <mxCell id="fy2Gs_JUKnOa4gsoeW3t-125" value="Ingrediente" style="swimlane;fontStyle=0;childLayout=stackLayout;horizontal=1;startSize=26;horizontalStack=0;resizeParent=1;resizeParentMax=0;resizeLast=0;collapsible=1;marginBottom=0;align=center;fontSize=14;" parent="1" vertex="1">
          <mxGeometry x="290" y="-210" width="160" height="146" as="geometry" />
        </mxCell>
        <mxCell id="fy2Gs_JUKnOa4gsoeW3t-126" value="" style="shape=table;startSize=0;container=1;collapsible=1;childLayout=tableLayout;fixedRows=1;rowLines=0;fontStyle=0;align=center;resizeLast=1;strokeColor=none;fillColor=none;collapsible=0;" parent="fy2Gs_JUKnOa4gsoeW3t-125" vertex="1">
          <mxGeometry y="26" width="160" height="30" as="geometry" />
        </mxCell>
        <mxCell id="fy2Gs_JUKnOa4gsoeW3t-127" value="" style="shape=tableRow;horizontal=0;startSize=0;swimlaneHead=0;swimlaneBody=0;fillColor=none;collapsible=0;dropTarget=0;points=[[0,0.5],[1,0.5]];portConstraint=eastwest;top=0;left=0;right=0;bottom=1;" parent="fy2Gs_JUKnOa4gsoeW3t-126" vertex="1">
          <mxGeometry width="160" height="30" as="geometry" />
        </mxCell>
        <mxCell id="fy2Gs_JUKnOa4gsoeW3t-128" value="PK" style="shape=partialRectangle;connectable=0;fillColor=none;top=0;left=0;bottom=0;right=0;fontStyle=1;overflow=hidden;whiteSpace=wrap;html=1;" parent="fy2Gs_JUKnOa4gsoeW3t-127" vertex="1">
          <mxGeometry width="30" height="30" as="geometry">
            <mxRectangle width="30" height="30" as="alternateBounds" />
          </mxGeometry>
        </mxCell>
        <mxCell id="fy2Gs_JUKnOa4gsoeW3t-129" value="Id_ingrediente" style="shape=partialRectangle;connectable=0;fillColor=none;top=0;left=0;bottom=0;right=0;align=left;spacingLeft=6;fontStyle=5;overflow=hidden;whiteSpace=wrap;html=1;" parent="fy2Gs_JUKnOa4gsoeW3t-127" vertex="1">
          <mxGeometry x="30" width="130" height="30" as="geometry">
            <mxRectangle width="130" height="30" as="alternateBounds" />
          </mxGeometry>
        </mxCell>
        <mxCell id="fy2Gs_JUKnOa4gsoeW3t-130" value="cantidad" style="text;strokeColor=none;fillColor=none;spacingLeft=4;spacingRight=4;overflow=hidden;rotatable=0;points=[[0,0.5],[1,0.5]];portConstraint=eastwest;fontSize=12;whiteSpace=wrap;html=1;" parent="fy2Gs_JUKnOa4gsoeW3t-125" vertex="1">
          <mxGeometry y="56" width="160" height="30" as="geometry" />
        </mxCell>
        <mxCell id="fy2Gs_JUKnOa4gsoeW3t-131" value="almacen" style="text;strokeColor=none;fillColor=none;spacingLeft=4;spacingRight=4;overflow=hidden;rotatable=0;points=[[0,0.5],[1,0.5]];portConstraint=eastwest;fontSize=12;whiteSpace=wrap;html=1;" parent="fy2Gs_JUKnOa4gsoeW3t-125" vertex="1">
          <mxGeometry y="86" width="160" height="30" as="geometry" />
        </mxCell>
        <mxCell id="fy2Gs_JUKnOa4gsoeW3t-132" value="estanteria" style="text;strokeColor=none;fillColor=none;spacingLeft=4;spacingRight=4;overflow=hidden;rotatable=0;points=[[0,0.5],[1,0.5]];portConstraint=eastwest;fontSize=12;whiteSpace=wrap;html=1;" parent="fy2Gs_JUKnOa4gsoeW3t-125" vertex="1">
          <mxGeometry y="116" width="160" height="30" as="geometry" />
        </mxCell>
        <mxCell id="fy2Gs_JUKnOa4gsoeW3t-134" value="Estanteria" style="swimlane;fontStyle=0;childLayout=stackLayout;horizontal=1;startSize=26;horizontalStack=0;resizeParent=1;resizeParentMax=0;resizeLast=0;collapsible=1;marginBottom=0;align=center;fontSize=14;" parent="1" vertex="1">
          <mxGeometry x="690" y="-210" width="160" height="146" as="geometry" />
        </mxCell>
        <mxCell id="fy2Gs_JUKnOa4gsoeW3t-135" value="" style="shape=table;startSize=0;container=1;collapsible=1;childLayout=tableLayout;fixedRows=1;rowLines=0;fontStyle=0;align=center;resizeLast=1;strokeColor=none;fillColor=none;collapsible=0;" parent="fy2Gs_JUKnOa4gsoeW3t-134" vertex="1">
          <mxGeometry y="26" width="160" height="30" as="geometry" />
        </mxCell>
        <mxCell id="fy2Gs_JUKnOa4gsoeW3t-136" value="" style="shape=tableRow;horizontal=0;startSize=0;swimlaneHead=0;swimlaneBody=0;fillColor=none;collapsible=0;dropTarget=0;points=[[0,0.5],[1,0.5]];portConstraint=eastwest;top=0;left=0;right=0;bottom=1;" parent="fy2Gs_JUKnOa4gsoeW3t-135" vertex="1">
          <mxGeometry width="160" height="30" as="geometry" />
        </mxCell>
        <mxCell id="fy2Gs_JUKnOa4gsoeW3t-137" value="PK" style="shape=partialRectangle;connectable=0;fillColor=none;top=0;left=0;bottom=0;right=0;fontStyle=1;overflow=hidden;whiteSpace=wrap;html=1;" parent="fy2Gs_JUKnOa4gsoeW3t-136" vertex="1">
          <mxGeometry width="30" height="30" as="geometry">
            <mxRectangle width="30" height="30" as="alternateBounds" />
          </mxGeometry>
        </mxCell>
        <mxCell id="fy2Gs_JUKnOa4gsoeW3t-138" value="Id_estanteria" style="shape=partialRectangle;connectable=0;fillColor=none;top=0;left=0;bottom=0;right=0;align=left;spacingLeft=6;fontStyle=5;overflow=hidden;whiteSpace=wrap;html=1;" parent="fy2Gs_JUKnOa4gsoeW3t-136" vertex="1">
          <mxGeometry x="30" width="130" height="30" as="geometry">
            <mxRectangle width="130" height="30" as="alternateBounds" />
          </mxGeometry>
        </mxCell>
        <mxCell id="fy2Gs_JUKnOa4gsoeW3t-139" value="cantidad" style="text;strokeColor=none;fillColor=none;spacingLeft=4;spacingRight=4;overflow=hidden;rotatable=0;points=[[0,0.5],[1,0.5]];portConstraint=eastwest;fontSize=12;whiteSpace=wrap;html=1;" parent="fy2Gs_JUKnOa4gsoeW3t-134" vertex="1">
          <mxGeometry y="56" width="160" height="30" as="geometry" />
        </mxCell>
        <mxCell id="fy2Gs_JUKnOa4gsoeW3t-140" value="almacen" style="text;strokeColor=none;fillColor=none;spacingLeft=4;spacingRight=4;overflow=hidden;rotatable=0;points=[[0,0.5],[1,0.5]];portConstraint=eastwest;fontSize=12;whiteSpace=wrap;html=1;" parent="fy2Gs_JUKnOa4gsoeW3t-134" vertex="1">
          <mxGeometry y="86" width="160" height="30" as="geometry" />
        </mxCell>
        <mxCell id="fy2Gs_JUKnOa4gsoeW3t-141" value="estanteria" style="text;strokeColor=none;fillColor=none;spacingLeft=4;spacingRight=4;overflow=hidden;rotatable=0;points=[[0,0.5],[1,0.5]];portConstraint=eastwest;fontSize=12;whiteSpace=wrap;html=1;" parent="fy2Gs_JUKnOa4gsoeW3t-134" vertex="1">
          <mxGeometry y="116" width="160" height="30" as="geometry" />
        </mxCell>
        <mxCell id="fy2Gs_JUKnOa4gsoeW3t-142" value="Almacen" style="swimlane;fontStyle=0;childLayout=stackLayout;horizontal=1;startSize=26;horizontalStack=0;resizeParent=1;resizeParentMax=0;resizeLast=0;collapsible=1;marginBottom=0;align=center;fontSize=14;" parent="1" vertex="1">
          <mxGeometry x="700" y="90" width="160" height="146" as="geometry" />
        </mxCell>
        <mxCell id="fy2Gs_JUKnOa4gsoeW3t-143" value="" style="shape=table;startSize=0;container=1;collapsible=1;childLayout=tableLayout;fixedRows=1;rowLines=0;fontStyle=0;align=center;resizeLast=1;strokeColor=none;fillColor=none;collapsible=0;" parent="fy2Gs_JUKnOa4gsoeW3t-142" vertex="1">
          <mxGeometry y="26" width="160" height="30" as="geometry" />
        </mxCell>
        <mxCell id="fy2Gs_JUKnOa4gsoeW3t-144" value="" style="shape=tableRow;horizontal=0;startSize=0;swimlaneHead=0;swimlaneBody=0;fillColor=none;collapsible=0;dropTarget=0;points=[[0,0.5],[1,0.5]];portConstraint=eastwest;top=0;left=0;right=0;bottom=1;" parent="fy2Gs_JUKnOa4gsoeW3t-143" vertex="1">
          <mxGeometry width="160" height="30" as="geometry" />
        </mxCell>
        <mxCell id="fy2Gs_JUKnOa4gsoeW3t-145" value="PK" style="shape=partialRectangle;connectable=0;fillColor=none;top=0;left=0;bottom=0;right=0;fontStyle=1;overflow=hidden;whiteSpace=wrap;html=1;" parent="fy2Gs_JUKnOa4gsoeW3t-144" vertex="1">
          <mxGeometry width="30" height="30" as="geometry">
            <mxRectangle width="30" height="30" as="alternateBounds" />
          </mxGeometry>
        </mxCell>
        <mxCell id="fy2Gs_JUKnOa4gsoeW3t-146" value="Id_almacen" style="shape=partialRectangle;connectable=0;fillColor=none;top=0;left=0;bottom=0;right=0;align=left;spacingLeft=6;fontStyle=5;overflow=hidden;whiteSpace=wrap;html=1;" parent="fy2Gs_JUKnOa4gsoeW3t-144" vertex="1">
          <mxGeometry x="30" width="130" height="30" as="geometry">
            <mxRectangle width="130" height="30" as="alternateBounds" />
          </mxGeometry>
        </mxCell>
        <mxCell id="fy2Gs_JUKnOa4gsoeW3t-147" value="nombre" style="text;strokeColor=none;fillColor=none;spacingLeft=4;spacingRight=4;overflow=hidden;rotatable=0;points=[[0,0.5],[1,0.5]];portConstraint=eastwest;fontSize=12;whiteSpace=wrap;html=1;" parent="fy2Gs_JUKnOa4gsoeW3t-142" vertex="1">
          <mxGeometry y="56" width="160" height="30" as="geometry" />
        </mxCell>
        <mxCell id="fy2Gs_JUKnOa4gsoeW3t-148" value="num_almacen" style="text;strokeColor=none;fillColor=none;spacingLeft=4;spacingRight=4;overflow=hidden;rotatable=0;points=[[0,0.5],[1,0.5]];portConstraint=eastwest;fontSize=12;whiteSpace=wrap;html=1;" parent="fy2Gs_JUKnOa4gsoeW3t-142" vertex="1">
          <mxGeometry y="86" width="160" height="30" as="geometry" />
        </mxCell>
        <mxCell id="fy2Gs_JUKnOa4gsoeW3t-149" value="descripcion" style="text;strokeColor=none;fillColor=none;spacingLeft=4;spacingRight=4;overflow=hidden;rotatable=0;points=[[0,0.5],[1,0.5]];portConstraint=eastwest;fontSize=12;whiteSpace=wrap;html=1;" parent="fy2Gs_JUKnOa4gsoeW3t-142" vertex="1">
          <mxGeometry y="116" width="160" height="30" as="geometry" />
        </mxCell>
        <mxCell id="fy2Gs_JUKnOa4gsoeW3t-151" value="" style="endArrow=none;html=1;rounded=0;entryX=0.438;entryY=1.133;entryDx=0;entryDy=0;entryPerimeter=0;exitX=0.5;exitY=0;exitDx=0;exitDy=0;" parent="1" source="cLzBhg89-Fmq2sAwmXO3-3" target="fy2Gs_JUKnOa4gsoeW3t-82" edge="1">
          <mxGeometry relative="1" as="geometry">
            <mxPoint x="-80" y="230" as="sourcePoint" />
            <mxPoint x="80" y="230" as="targetPoint" />
          </mxGeometry>
        </mxCell>
        <mxCell id="fy2Gs_JUKnOa4gsoeW3t-153" value="" style="edgeStyle=entityRelationEdgeStyle;fontSize=12;html=1;endArrow=ERmany;rounded=0;entryX=0.014;entryY=0.182;entryDx=0;entryDy=0;entryPerimeter=0;exitX=0.5;exitY=0;exitDx=0;exitDy=0;" parent="1" source="cLzBhg89-Fmq2sAwmXO3-5" target="fy2Gs_JUKnOa4gsoeW3t-92" edge="1">
          <mxGeometry width="100" height="100" relative="1" as="geometry">
            <mxPoint x="-10" y="273" as="sourcePoint" />
            <mxPoint x="154.63999999999987" y="365.1400000000003" as="targetPoint" />
            <Array as="points">
              <mxPoint x="50" y="410" />
            </Array>
          </mxGeometry>
        </mxCell>
        <mxCell id="fy2Gs_JUKnOa4gsoeW3t-154" value="" style="edgeStyle=entityRelationEdgeStyle;fontSize=12;html=1;endArrow=ERmandOne;rounded=0;entryX=1.006;entryY=0.166;entryDx=0;entryDy=0;entryPerimeter=0;" parent="1" source="cLzBhg89-Fmq2sAwmXO3-5" target="fy2Gs_JUKnOa4gsoeW3t-103" edge="1">
          <mxGeometry width="100" height="100" relative="1" as="geometry">
            <mxPoint x="-130" y="273" as="sourcePoint" />
            <mxPoint x="-150" y="350" as="targetPoint" />
            <Array as="points">
              <mxPoint x="-210" y="420" />
            </Array>
          </mxGeometry>
        </mxCell>
        <mxCell id="fy2Gs_JUKnOa4gsoeW3t-155" value="0,1" style="text;html=1;strokeColor=none;fillColor=none;align=center;verticalAlign=middle;whiteSpace=wrap;rounded=0;" parent="1" vertex="1">
          <mxGeometry x="-214" y="308" width="60" height="30" as="geometry" />
        </mxCell>
        <mxCell id="fy2Gs_JUKnOa4gsoeW3t-156" value="0,1" style="text;html=1;strokeColor=none;fillColor=none;align=center;verticalAlign=middle;whiteSpace=wrap;rounded=0;" parent="1" vertex="1">
          <mxGeometry x="23" y="300" width="60" height="30" as="geometry" />
        </mxCell>
        <mxCell id="fy2Gs_JUKnOa4gsoeW3t-157" value="1,1" style="text;html=1;strokeColor=none;fillColor=none;align=center;verticalAlign=middle;whiteSpace=wrap;rounded=0;" parent="1" vertex="1">
          <mxGeometry x="-80" y="156" width="60" height="30" as="geometry" />
        </mxCell>
        <mxCell id="fy2Gs_JUKnOa4gsoeW3t-158" value="Ayuda" style="shape=rhombus;perimeter=rhombusPerimeter;whiteSpace=wrap;html=1;align=center;" parent="1" vertex="1">
          <mxGeometry x="-130" y="370" width="120" height="60" as="geometry" />
        </mxCell>
        <mxCell id="fy2Gs_JUKnOa4gsoeW3t-159" value="" style="line;strokeWidth=1;rotatable=0;dashed=0;labelPosition=right;align=left;verticalAlign=middle;spacingTop=0;spacingLeft=6;points=[];portConstraint=eastwest;" parent="1" vertex="1">
          <mxGeometry x="-200" y="395" width="70" height="10" as="geometry" />
        </mxCell>
        <mxCell id="fy2Gs_JUKnOa4gsoeW3t-160" value="" style="line;strokeWidth=1;rotatable=0;dashed=0;labelPosition=right;align=left;verticalAlign=middle;spacingTop=0;spacingLeft=6;points=[];portConstraint=eastwest;" parent="1" vertex="1">
          <mxGeometry x="-10" y="395" width="80" height="10" as="geometry" />
        </mxCell>
        <mxCell id="fy2Gs_JUKnOa4gsoeW3t-161" value="0,1" style="text;html=1;strokeColor=none;fillColor=none;align=center;verticalAlign=middle;whiteSpace=wrap;rounded=0;" parent="1" vertex="1">
          <mxGeometry x="-200" y="375" width="60" height="30" as="geometry" />
        </mxCell>
        <mxCell id="fy2Gs_JUKnOa4gsoeW3t-162" value="1,1" style="text;html=1;strokeColor=none;fillColor=none;align=center;verticalAlign=middle;whiteSpace=wrap;rounded=0;" parent="1" vertex="1">
          <mxGeometry y="375" width="60" height="30" as="geometry" />
        </mxCell>
        <mxCell id="fy2Gs_JUKnOa4gsoeW3t-163" value="Cocina" style="shape=rhombus;perimeter=rhombusPerimeter;whiteSpace=wrap;html=1;align=center;" parent="1" vertex="1">
          <mxGeometry x="310" y="353" width="120" height="60" as="geometry" />
        </mxCell>
        <mxCell id="fy2Gs_JUKnOa4gsoeW3t-166" value="1,n" style="text;html=1;strokeColor=none;fillColor=none;align=center;verticalAlign=middle;whiteSpace=wrap;rounded=0;" parent="1" vertex="1">
          <mxGeometry x="250" y="347" width="60" height="30" as="geometry" />
        </mxCell>
        <mxCell id="fy2Gs_JUKnOa4gsoeW3t-167" value="0,n" style="text;html=1;strokeColor=none;fillColor=none;align=center;verticalAlign=middle;whiteSpace=wrap;rounded=0;" parent="1" vertex="1">
          <mxGeometry x="358" y="262" width="60" height="30" as="geometry" />
        </mxCell>
        <mxCell id="fy2Gs_JUKnOa4gsoeW3t-168" value="Elabora" style="shape=rhombus;perimeter=rhombusPerimeter;whiteSpace=wrap;html=1;align=center;" parent="1" vertex="1">
          <mxGeometry x="310" y="-20" width="120" height="60" as="geometry" />
        </mxCell>
        <mxCell id="fy2Gs_JUKnOa4gsoeW3t-170" value="" style="endArrow=none;html=1;rounded=0;entryX=0.497;entryY=0.989;entryDx=0;entryDy=0;entryPerimeter=0;" parent="1" source="fy2Gs_JUKnOa4gsoeW3t-168" target="fy2Gs_JUKnOa4gsoeW3t-132" edge="1">
          <mxGeometry relative="1" as="geometry">
            <mxPoint x="320" y="220" as="sourcePoint" />
            <mxPoint x="480" y="220" as="targetPoint" />
          </mxGeometry>
        </mxCell>
        <mxCell id="fy2Gs_JUKnOa4gsoeW3t-171" value="" style="endArrow=none;html=1;rounded=0;entryX=0.5;entryY=1;entryDx=0;entryDy=0;exitX=0.5;exitY=0;exitDx=0;exitDy=0;" parent="1" source="fy2Gs_JUKnOa4gsoeW3t-114" target="fy2Gs_JUKnOa4gsoeW3t-168" edge="1">
          <mxGeometry relative="1" as="geometry">
            <mxPoint x="378" y="-9" as="sourcePoint" />
            <mxPoint x="375" y="-49" as="targetPoint" />
            <Array as="points" />
          </mxGeometry>
        </mxCell>
        <mxCell id="fy2Gs_JUKnOa4gsoeW3t-172" value="1,n" style="text;html=1;strokeColor=none;fillColor=none;align=center;verticalAlign=middle;whiteSpace=wrap;rounded=0;" parent="1" vertex="1">
          <mxGeometry x="310" y="-50" width="60" height="30" as="geometry" />
        </mxCell>
        <mxCell id="fy2Gs_JUKnOa4gsoeW3t-173" value="0,n" style="text;html=1;strokeColor=none;fillColor=none;align=center;verticalAlign=middle;whiteSpace=wrap;rounded=0;" parent="1" vertex="1">
          <mxGeometry x="320" y="60" width="60" height="30" as="geometry" />
        </mxCell>
        <mxCell id="fy2Gs_JUKnOa4gsoeW3t-174" value="N,M" style="text;html=1;strokeColor=none;fillColor=none;align=center;verticalAlign=middle;whiteSpace=wrap;rounded=0;" parent="1" vertex="1">
          <mxGeometry x="260" y="-5" width="60" height="30" as="geometry" />
        </mxCell>
        <mxCell id="fy2Gs_JUKnOa4gsoeW3t-177" value="0,1" style="text;html=1;strokeColor=none;fillColor=none;align=center;verticalAlign=middle;whiteSpace=wrap;rounded=0;" parent="1" vertex="1">
          <mxGeometry x="-100" y="345" width="60" height="30" as="geometry" />
        </mxCell>
        <mxCell id="fy2Gs_JUKnOa4gsoeW3t-178" value="Guarda" style="shape=rhombus;perimeter=rhombusPerimeter;whiteSpace=wrap;html=1;align=center;" parent="1" vertex="1">
          <mxGeometry x="510" y="-167" width="120" height="60" as="geometry" />
        </mxCell>
        <mxCell id="fy2Gs_JUKnOa4gsoeW3t-179" value="Almacena" style="shape=rhombus;perimeter=rhombusPerimeter;whiteSpace=wrap;html=1;align=center;" parent="1" vertex="1">
          <mxGeometry x="720" y="-20" width="120" height="60" as="geometry" />
        </mxCell>
        <mxCell id="fy2Gs_JUKnOa4gsoeW3t-180" value="" style="endArrow=none;html=1;rounded=0;" parent="1" edge="1">
          <mxGeometry relative="1" as="geometry">
            <mxPoint x="450" y="-137" as="sourcePoint" />
            <mxPoint x="510" y="-137.5" as="targetPoint" />
          </mxGeometry>
        </mxCell>
        <mxCell id="fy2Gs_JUKnOa4gsoeW3t-181" value="" style="endArrow=none;html=1;rounded=0;" parent="1" edge="1">
          <mxGeometry relative="1" as="geometry">
            <mxPoint x="630" y="-137" as="sourcePoint" />
            <mxPoint x="690" y="-137.5" as="targetPoint" />
          </mxGeometry>
        </mxCell>
        <mxCell id="fy2Gs_JUKnOa4gsoeW3t-182" value="0,n" style="text;html=1;strokeColor=none;fillColor=none;align=center;verticalAlign=middle;whiteSpace=wrap;rounded=0;" parent="1" vertex="1">
          <mxGeometry x="450" y="-167" width="60" height="30" as="geometry" />
        </mxCell>
        <mxCell id="fy2Gs_JUKnOa4gsoeW3t-183" value="1,n" style="text;html=1;strokeColor=none;fillColor=none;align=center;verticalAlign=middle;whiteSpace=wrap;rounded=0;" parent="1" vertex="1">
          <mxGeometry x="630" y="-167" width="60" height="30" as="geometry" />
        </mxCell>
        <mxCell id="fy2Gs_JUKnOa4gsoeW3t-184" value="N,M" style="text;html=1;strokeColor=none;fillColor=none;align=center;verticalAlign=middle;whiteSpace=wrap;rounded=0;" parent="1" vertex="1">
          <mxGeometry x="540" y="-197" width="60" height="30" as="geometry" />
        </mxCell>
        <mxCell id="fy2Gs_JUKnOa4gsoeW3t-185" value="" style="endArrow=none;html=1;rounded=0;exitX=0.561;exitY=1.127;exitDx=0;exitDy=0;exitPerimeter=0;entryX=0.5;entryY=0;entryDx=0;entryDy=0;" parent="1" source="fy2Gs_JUKnOa4gsoeW3t-141" target="fy2Gs_JUKnOa4gsoeW3t-179" edge="1">
          <mxGeometry relative="1" as="geometry">
            <mxPoint x="320" y="-20" as="sourcePoint" />
            <mxPoint x="480" y="-20" as="targetPoint" />
          </mxGeometry>
        </mxCell>
        <mxCell id="fy2Gs_JUKnOa4gsoeW3t-186" value="" style="endArrow=none;html=1;rounded=0;exitX=0.5;exitY=0;exitDx=0;exitDy=0;entryX=0.5;entryY=1;entryDx=0;entryDy=0;" parent="1" source="fy2Gs_JUKnOa4gsoeW3t-142" target="fy2Gs_JUKnOa4gsoeW3t-179" edge="1">
          <mxGeometry relative="1" as="geometry">
            <mxPoint x="790" y="-50" as="sourcePoint" />
            <mxPoint x="790" y="-10" as="targetPoint" />
          </mxGeometry>
        </mxCell>
        <mxCell id="fy2Gs_JUKnOa4gsoeW3t-187" value="0,n" style="text;html=1;strokeColor=none;fillColor=none;align=center;verticalAlign=middle;whiteSpace=wrap;rounded=0;" parent="1" vertex="1">
          <mxGeometry x="740" y="-50" width="60" height="30" as="geometry" />
        </mxCell>
        <mxCell id="fy2Gs_JUKnOa4gsoeW3t-188" value="1,n" style="text;html=1;strokeColor=none;fillColor=none;align=center;verticalAlign=middle;whiteSpace=wrap;rounded=0;" parent="1" vertex="1">
          <mxGeometry x="740" y="50" width="60" height="30" as="geometry" />
        </mxCell>
        <mxCell id="fy2Gs_JUKnOa4gsoeW3t-189" value="N:M" style="text;html=1;strokeColor=none;fillColor=none;align=center;verticalAlign=middle;whiteSpace=wrap;rounded=0;" parent="1" vertex="1">
          <mxGeometry x="670" y="-5" width="60" height="30" as="geometry" />
        </mxCell>
        <mxCell id="fy2Gs_JUKnOa4gsoeW3t-190" value="" style="endArrow=none;html=1;rounded=0;entryX=0.491;entryY=1.073;entryDx=0;entryDy=0;exitX=0.5;exitY=0;exitDx=0;exitDy=0;entryPerimeter=0;" parent="1" target="fy2Gs_JUKnOa4gsoeW3t-124" edge="1">
          <mxGeometry relative="1" as="geometry">
            <mxPoint x="370" y="353" as="sourcePoint" />
            <mxPoint x="370" y="295" as="targetPoint" />
            <Array as="points" />
          </mxGeometry>
        </mxCell>
        <mxCell id="fy2Gs_JUKnOa4gsoeW3t-191" value="" style="endArrow=none;html=1;rounded=0;entryX=1;entryY=0.5;entryDx=0;entryDy=0;exitX=0;exitY=0.5;exitDx=0;exitDy=0;" parent="1" source="fy2Gs_JUKnOa4gsoeW3t-163" target="fy2Gs_JUKnOa4gsoeW3t-92" edge="1">
          <mxGeometry relative="1" as="geometry">
            <mxPoint x="380" y="363" as="sourcePoint" />
            <mxPoint x="379" y="256" as="targetPoint" />
            <Array as="points" />
          </mxGeometry>
        </mxCell>
        <mxCell id="uf1NiKmGzSr3yvprR-MH-1" value="N:M" style="text;html=1;strokeColor=none;fillColor=none;align=center;verticalAlign=middle;whiteSpace=wrap;rounded=0;" parent="1" vertex="1">
          <mxGeometry x="424" y="368" width="60" height="30" as="geometry" />
        </mxCell>
        <mxCell id="cLzBhg89-Fmq2sAwmXO3-1" value="&lt;div style=&quot;text-align: justify; line-height: 180%; font-size: 15px;&quot;&gt;&lt;span style=&quot;background-color: initial;&quot;&gt;&lt;font style=&quot;font-size: 15px;&quot;&gt;Empleado (&lt;u style=&quot;&quot;&gt;DNI&lt;/u&gt;, nombre, apellido, num_ss, tel_fijo, tel_movil)&lt;/font&gt;&lt;/span&gt;&lt;/div&gt;&lt;div style=&quot;text-align: justify; line-height: 180%; font-size: 15px;&quot;&gt;&lt;span style=&quot;background-color: initial;&quot;&gt;&lt;font style=&quot;font-size: 15px;&quot;&gt;Pinche (&lt;u&gt;fk_DNI&lt;/u&gt;, fecha_nacimiento, &lt;u&gt;fk_DNI_cuiner&lt;/u&gt;)&lt;/font&gt;&lt;/span&gt;&lt;/div&gt;&lt;div style=&quot;text-align: justify; line-height: 180%; font-size: 15px;&quot;&gt;&lt;span style=&quot;background-color: initial;&quot;&gt;&lt;font style=&quot;font-size: 15px;&quot;&gt;Cocinero (&lt;u&gt;fk_DNI&lt;/u&gt;, años_en_empresa)&lt;/font&gt;&lt;/span&gt;&lt;/div&gt;&lt;div style=&quot;text-align: justify; line-height: 180%; font-size: 15px;&quot;&gt;&lt;span style=&quot;background-color: initial;&quot;&gt;&lt;font style=&quot;font-size: 15px;&quot;&gt;Plato (&lt;u&gt;Id_plato&lt;/u&gt;, nombre, precio, tipo_plato)&lt;/font&gt;&lt;/span&gt;&lt;/div&gt;&lt;div style=&quot;text-align: justify; line-height: 180%; font-size: 15px;&quot;&gt;&lt;font style=&quot;font-size: 15px;&quot;&gt;Cocina(&lt;u style=&quot;border-color: var(--border-color);&quot;&gt;fk_DNI&lt;/u&gt;,&amp;nbsp;&lt;u style=&quot;border-color: var(--border-color);&quot;&gt;fk_id_plato&lt;/u&gt;)&lt;/font&gt;&lt;/div&gt;&lt;div style=&quot;text-align: justify; line-height: 180%; font-size: 15px;&quot;&gt;&lt;span style=&quot;background-color: initial;&quot;&gt;&lt;font style=&quot;font-size: 15px;&quot;&gt;Ingrediente (&lt;u&gt;Id_ingrediente&lt;/u&gt;, cantidad, almacen, estanteria)&lt;/font&gt;&lt;/span&gt;&lt;/div&gt;&lt;div style=&quot;text-align: justify; line-height: 180%; font-size: 15px;&quot;&gt;&lt;font style=&quot;font-size: 15px;&quot;&gt;Elabora(&lt;u&gt;fk_id_plato&lt;/u&gt;, &lt;u&gt;fk_id_ingredientes&lt;/u&gt;)&lt;span style=&quot;background-color: initial;&quot;&gt;&lt;font style=&quot;font-size: 15px;&quot;&gt;&lt;br&gt;&lt;/font&gt;&lt;/span&gt;&lt;/font&gt;&lt;/div&gt;&lt;div style=&quot;text-align: justify; line-height: 180%; font-size: 15px;&quot;&gt;&lt;span style=&quot;background-color: initial;&quot;&gt;&lt;font style=&quot;font-size: 15px;&quot;&gt;Estanteria (&lt;u&gt;id_estanteria&lt;/u&gt;, cantidad, almacen, estanteria)&lt;/font&gt;&lt;/span&gt;&lt;/div&gt;&lt;div style=&quot;text-align: justify; line-height: 180%; font-size: 15px;&quot;&gt;&lt;span style=&quot;background-color: initial;&quot;&gt;&lt;font style=&quot;font-size: 15px;&quot;&gt;Guarda(&lt;u&gt;fk_id_ingrediente&lt;/u&gt;, &lt;u&gt;fk_id_estanteria&lt;/u&gt;)&lt;/font&gt;&lt;/span&gt;&lt;/div&gt;&lt;div style=&quot;text-align: justify; line-height: 180%; font-size: 15px;&quot;&gt;&lt;span style=&quot;background-color: initial;&quot;&gt;&lt;font style=&quot;font-size: 15px;&quot;&gt;Almacen (&lt;u&gt;id_almacen&lt;/u&gt;, nombre, num_almacen, descripcion)&lt;/font&gt;&lt;/span&gt;&lt;/div&gt;&lt;div style=&quot;text-align: justify; line-height: 180%; font-size: 15px;&quot;&gt;&lt;span style=&quot;background-color: initial;&quot;&gt;&lt;font style=&quot;font-size: 15px;&quot;&gt;Almacena(&lt;u style=&quot;&quot;&gt;fk_id_almacen&lt;/u&gt;, &lt;u style=&quot;&quot;&gt;fk_id_estanteria&lt;/u&gt;)&lt;/font&gt;&lt;/span&gt;&lt;/div&gt;" style="text;html=1;strokeColor=none;fillColor=none;align=center;verticalAlign=middle;whiteSpace=wrap;rounded=0;" parent="1" vertex="1">
          <mxGeometry x="-331" y="508" width="562" height="315" as="geometry" />
        </mxCell>
        <mxCell id="cLzBhg89-Fmq2sAwmXO3-4" value="" style="endArrow=none;html=1;rounded=0;entryX=0.5;entryY=1;entryDx=0;entryDy=0;exitX=0.5;exitY=0;exitDx=0;exitDy=0;" parent="1" target="cLzBhg89-Fmq2sAwmXO3-3" edge="1">
          <mxGeometry relative="1" as="geometry">
            <mxPoint x="-70" y="243" as="sourcePoint" />
            <mxPoint x="-70" y="160" as="targetPoint" />
          </mxGeometry>
        </mxCell>
        <mxCell id="cLzBhg89-Fmq2sAwmXO3-3" value="" style="ellipse;whiteSpace=wrap;html=1;aspect=fixed;" parent="1" vertex="1">
          <mxGeometry x="-82" y="194" width="24" height="24" as="geometry" />
        </mxCell>
        <mxCell id="cLzBhg89-Fmq2sAwmXO3-5" value="" style="triangle;whiteSpace=wrap;html=1;rotation=90;" parent="1" vertex="1">
          <mxGeometry x="-92.5" y="228" width="45" height="64" as="geometry" />
        </mxCell>
        <mxCell id="cLzBhg89-Fmq2sAwmXO3-8" value="" style="shape=requiredInterface;html=1;verticalLabelPosition=bottom;sketch=0;rotation=90;" parent="1" vertex="1">
          <mxGeometry x="-75" y="167" width="10" height="242" as="geometry" />
        </mxCell>
      </root>
    </mxGraphModel>
  </diagram>
</mxfile>
